<svg width="218" height="218" viewBox="0 0 218 218" fill="none" xmlns="http://www.w3.org/2000/svg">
<circle cx="105.105" cy="24" r="4" fill="#FA812F" fill-opacity="0.32"/>
<circle cx="105.105" cy="194" r="4" fill="#FA812F" fill-opacity="0.32"/>
<circle cx="87.0044" cy="26.8987" r="4" transform="rotate(-15 87.0044 26.8987)" fill="#FA812F" fill-opacity="0.32"/>
<circle cx="131.004" cy="191.106" r="4" transform="rotate(-15 131.004 191.106)" fill="#FA812F" fill-opacity="0.32"/>
<circle cx="66.5032" cy="35.3904" r="4" transform="rotate(-30 66.5032 35.3904)" fill="#FA812F" fill-opacity="0.32"/>
<circle cx="151.503" cy="182.614" r="4" transform="rotate(-30 151.503 182.614)" fill="#FA812F" fill-opacity="0.32"/>
<circle cx="48.899" cy="48.8989" r="4" transform="rotate(-45 48.899 48.8989)" fill="#FA812F" fill-opacity="0.32"/>
<circle cx="169.108" cy="169.107" r="4" transform="rotate(-45 169.108 169.107)" fill="#FA812F" fill-opacity="0.32"/>
<circle cx="35.3899" cy="66.5032" r="4" transform="rotate(-60 35.3899 66.5032)" fill="#FA812F" fill-opacity="0.32"/>
<circle cx="182.614" cy="151.503" r="4" transform="rotate(-60 182.614 151.503)" fill="#FA812F" fill-opacity="0.32"/>
<circle cx="26.897" cy="87.0041" r="4" transform="rotate(-75 26.897 87.0041)" fill="#FA812F" fill-opacity="0.32"/>
<circle cx="191.104" cy="131.004" r="4" transform="rotate(-75 191.104 131.004)" fill="#FA812F" fill-opacity="0.32"/>
<circle cx="24" cy="109.004" r="4" transform="rotate(-90 24 109.004)" fill="#FA812F" fill-opacity="0.32"/>
<circle cx="194" cy="109.004" r="4" transform="rotate(-90 194 109.004)" fill="#FA812F" fill-opacity="0.32"/>
<circle cx="26.8968" cy="131.005" r="4" transform="rotate(-105 26.8968 131.005)" fill="#FA812F" fill-opacity="0.32"/>
<circle cx="191.104" cy="87.0063" r="4" transform="rotate(-105 191.104 87.0063)" fill="#FA812F" fill-opacity="0.32"/>
<circle cx="35.3879" cy="151.507" r="4" transform="rotate(-120 35.3879 151.507)" fill="#FA812F" fill-opacity="0.32"/>
<circle cx="182.613" cy="66.5066" r="4" transform="rotate(-120 182.613 66.5066)" fill="#FA812F" fill-opacity="0.32"/>
<circle cx="48.8965" cy="169.112" r="4" transform="rotate(-135 48.8965 169.112)" fill="#FA812F" fill-opacity="0.32"/>
<circle cx="169.105" cy="48.9037" r="4" transform="rotate(-135 169.105 48.9037)" fill="#FA812F" fill-opacity="0.32"/>
<circle cx="66.5007" cy="182.621" r="4" transform="rotate(-150 66.5007 182.621)" fill="#FA812F" fill-opacity="0.32"/>
<circle cx="151.501" cy="35.3967" r="4" transform="rotate(-150 151.501 35.3967)" fill="#FA812F" fill-opacity="0.32"/>
<circle cx="87.0016" cy="191.113" r="4" transform="rotate(-165 87.0016 191.113)" fill="#FA812F" fill-opacity="0.32"/>
<circle cx="131.002" cy="26.9052" r="4" transform="rotate(-165 131.002 26.9052)" fill="#FA812F" fill-opacity="0.32"/>
<circle cx="104.151" cy="4.89519" r="4.89519" fill="#FA812F" fill-opacity="0.32"/>
<circle cx="104.151" cy="212.941" r="4.89519" fill="#FA812F" fill-opacity="0.32"/>
<circle cx="81.9993" cy="8.44287" r="4.89519" transform="rotate(-15 81.9993 8.44287)" fill="#FA812F" fill-opacity="0.32"/>
<circle cx="135.847" cy="209.399" r="4.89519" transform="rotate(-15 135.847 209.399)" fill="#FA812F" fill-opacity="0.32"/>
<circle cx="56.9096" cy="18.8342" r="4.89519" transform="rotate(-30 56.9096 18.8342)" fill="#FA812F" fill-opacity="0.32"/>
<circle cx="160.933" cy="199.008" r="4.89519" transform="rotate(-30 160.933 199.008)" fill="#FA812F" fill-opacity="0.32"/>
<circle cx="35.3662" cy="35.3657" r="4.89519" transform="rotate(-45 35.3662 35.3657)" fill="#FA812F" fill-opacity="0.32"/>
<circle cx="182.478" cy="182.478" r="4.89519" transform="rotate(-45 182.478 182.478)" fill="#FA812F" fill-opacity="0.32"/>
<circle cx="18.8334" cy="56.9099" r="4.89519" transform="rotate(-60 18.8334 56.9099)" fill="#FA812F" fill-opacity="0.32"/>
<circle cx="199.007" cy="160.933" r="4.89519" transform="rotate(-60 199.007 160.933)" fill="#FA812F" fill-opacity="0.32"/>
<circle cx="8.44067" cy="81.999" r="4.89519" transform="rotate(-75 8.44067 81.999)" fill="#FA812F" fill-opacity="0.32"/>
<circle cx="209.396" cy="135.846" r="4.89519" transform="rotate(-75 209.396 135.846)" fill="#FA812F" fill-opacity="0.32"/>
<circle cx="4.89519" cy="108.923" r="4.89519" transform="rotate(-90 4.89519 108.923)" fill="#FA812F" fill-opacity="0.32"/>
<circle cx="212.94" cy="108.923" r="4.89519" transform="rotate(-90 212.94 108.923)" fill="#FA812F" fill-opacity="0.32"/>
<circle cx="8.43994" cy="135.848" r="4.89519" transform="rotate(-105 8.43994 135.848)" fill="#FA812F" fill-opacity="0.32"/>
<circle cx="209.397" cy="82.0022" r="4.89519" transform="rotate(-105 209.397 82.0022)" fill="#FA812F" fill-opacity="0.32"/>
<circle cx="18.8308" cy="160.938" r="4.89519" transform="rotate(-120 18.8308 160.938)" fill="#FA812F" fill-opacity="0.32"/>
<circle cx="199.005" cy="56.9146" r="4.89519" transform="rotate(-120 199.005 56.9146)" fill="#FA812F" fill-opacity="0.32"/>
<circle cx="35.3633" cy="182.482" r="4.89519" transform="rotate(-135 35.3633 182.482)" fill="#FA812F" fill-opacity="0.32"/>
<circle cx="182.475" cy="35.3721" r="4.89519" transform="rotate(-135 182.475 35.3721)" fill="#FA812F" fill-opacity="0.32"/>
<circle cx="56.9075" cy="199.015" r="4.89519" transform="rotate(-150 56.9075 199.015)" fill="#FA812F" fill-opacity="0.32"/>
<circle cx="160.931" cy="18.8433" r="4.89519" transform="rotate(-150 160.931 18.8433)" fill="#FA812F" fill-opacity="0.32"/>
<circle cx="81.9956" cy="209.407" r="4.89519" transform="rotate(-165 81.9956 209.407)" fill="#FA812F" fill-opacity="0.32"/>
<circle cx="135.843" cy="8.45142" r="4.89519" transform="rotate(-165 135.843 8.45142)" fill="#FA812F" fill-opacity="0.32"/>
<circle cx="101.072" cy="45.0112" r="3.01124" fill="#FA812F" fill-opacity="0.32"/>
<circle cx="101.072" cy="172.998" r="3.01124" fill="#FA812F" fill-opacity="0.32"/>
<circle cx="87.4458" cy="47.1937" r="3.01124" transform="rotate(-15 87.4458 47.1937)" fill="#FA812F" fill-opacity="0.32"/>
<circle cx="120.571" cy="170.818" r="3.01124" transform="rotate(-15 120.571 170.818)" fill="#FA812F" fill-opacity="0.32"/>
<circle cx="72.0099" cy="53.5861" r="3.01124" transform="rotate(-30 72.0099 53.5861)" fill="#FA812F" fill-opacity="0.32"/>
<circle cx="136.002" cy="164.426" r="3.01124" transform="rotate(-30 136.002 164.426)" fill="#FA812F" fill-opacity="0.32"/>
<circle cx="58.7566" cy="63.7568" r="3.01124" transform="rotate(-45 58.7566 63.7568)" fill="#FA812F" fill-opacity="0.32"/>
<circle cx="149.257" cy="154.257" r="3.01124" transform="rotate(-45 149.257 154.257)" fill="#FA812F" fill-opacity="0.32"/>
<circle cx="48.5861" cy="77.0096" r="3.01124" transform="rotate(-60 48.5861 77.0096)" fill="#FA812F" fill-opacity="0.32"/>
<circle cx="159.426" cy="141.003" r="3.01124" transform="rotate(-60 159.426 141.003)" fill="#FA812F" fill-opacity="0.32"/>
<circle cx="42.1919" cy="92.444" r="3.01124" transform="rotate(-75 42.1919 92.444)" fill="#FA812F" fill-opacity="0.32"/>
<circle cx="165.817" cy="125.57" r="3.01124" transform="rotate(-75 165.817 125.57)" fill="#FA812F" fill-opacity="0.32"/>
<circle cx="40.0112" cy="109.008" r="3.01124" transform="rotate(-90 40.0112 109.008)" fill="#FA812F" fill-opacity="0.32"/>
<circle cx="167.998" cy="109.008" r="3.01124" transform="rotate(-90 167.998 109.008)" fill="#FA812F" fill-opacity="0.32"/>
<circle cx="42.1918" cy="125.572" r="3.01124" transform="rotate(-105 42.1918 125.572)" fill="#FA812F" fill-opacity="0.32"/>
<circle cx="165.817" cy="92.4463" r="3.01124" transform="rotate(-105 165.817 92.4463)" fill="#FA812F" fill-opacity="0.32"/>
<circle cx="48.5846" cy="141.006" r="3.01124" transform="rotate(-120 48.5846 141.006)" fill="#FA812F" fill-opacity="0.32"/>
<circle cx="159.424" cy="77.013" r="3.01124" transform="rotate(-120 159.424 77.013)" fill="#FA812F" fill-opacity="0.32"/>
<circle cx="58.7539" cy="154.26" r="3.01124" transform="rotate(-135 58.7539 154.26)" fill="#FA812F" fill-opacity="0.32"/>
<circle cx="149.256" cy="63.7605" r="3.01124" transform="rotate(-135 149.256 63.7605)" fill="#FA812F" fill-opacity="0.32"/>
<circle cx="72.0091" cy="164.431" r="3.01124" transform="rotate(-150 72.0091 164.431)" fill="#FA812F" fill-opacity="0.32"/>
<circle cx="136.001" cy="53.5921" r="3.01124" transform="rotate(-150 136.001 53.5921)" fill="#FA812F" fill-opacity="0.32"/>
<circle cx="87.443" cy="170.824" r="3.01124" transform="rotate(-165 87.443 170.824)" fill="#FA812F" fill-opacity="0.32"/>
<circle cx="120.568" cy="47.1992" r="3.01124" transform="rotate(-165 120.568 47.1992)" fill="#FA812F" fill-opacity="0.32"/>
</svg>
